<?xml version="1.0" encoding="UTF-8" standalone="no"?>
<!DOCTYPE svg PUBLIC "-//W3C//DTD SVG 1.1//EN" "http://www.w3.org/Graphics/SVG/1.1/DTD/svg11.dtd">
<svg version="1.1" xmlns="http://www.w3.org/2000/svg" xmlns:xlink="http://www.w3.org/1999/xlink" preserveAspectRatio="xMidYMid meet" viewBox="0 0 1250 750" width="1250" height="750"><defs><path d="M0 0L1250 0L1250 750L0 750L0 0Z" id="aLyieWvZ0"></path><path d="M920.71 798.02L930.42 780.75L1113.23 637.73L1165.21 492.57L1270.71 357.58L1307.88 250.46L1321.27 58.71L1167.32 18.95L1118.43 118.37L1119.18 185.35L1117.33 288.69L1047.26 390.71L938.62 529.33L871.54 635L872.08 770.68" id="ho8bwbe6d"></path><path d="M940.09 529.15C1059.33 510.69 1133.85 499.15 1163.66 494.54C1165.37 494.27 1166 492.12 1164.69 490.98C1149.4 477.61 1111.19 444.21 1050.05 390.76L1055.53 608.18L1113.01 637.5L873.41 635.81L929.19 782.06" id="b4o2mLpdO"></path><path d="M1119.23 118.04L1307.98 62.68L1321.25 58.66L1165.7 152.57L1266.71 354.68L1118.73 290.24L1165.08 492.22" id="g56hrmfaS"></path><path d="M868.91 773.14L926.27 780.42L1127.33 709.59L1047.28 869.16" id="d7fd6lC20m"></path><path d="M939.24 528.48L1055.13 608.76L1129.62 707.22" id="a5QoJv1fiT"></path><path d="M871.28 635.45L1054.8 609.05L1165.08 492.22L1129.03 706.31" id="b1PwBKb8O8"></path><path d="M1118.77 195.45L1048.14 389.98L1268.56 357.15L1126.97 180.86L1166.13 152.13" id="a2mcsQFwEF"></path><path d="M1414.53 9.37L1445.84 81.77L1323.2 60.83L1390.69 152.54L1306.87 251.23L1119.39 288.86L1166.17 153.56" id="b39J1jJxJU"></path><path d="M1346.34 -29.05L1326.76 60.93L1383.12 -8.38" id="a1Q0ZCjStZ"></path><path d="M1388.55 156.17L1166.78 152.42L1168.18 17.76L1291.19 -60.05" id="e5oMZvZfSf"></path><path d="M1118.8 118.21L1307.43 252.66L1119.21 177.58" id="a1od4dQr8a"></path><path d="M1454.02 31.48L1449.07 82.66L1388.55 156.17" id="awzMZm0di"></path><path d="M35.57 127.96L297.1 23.7L471.48 244.76L317.7 485.63L48.3 413.44L35.57 127.96Z" id="d2HZ35TEiO"></path><path d="M44.59 430.26L144.62 458.98L145.57 563.04L46.12 598.64L-16.29 516.58L44.59 430.26Z" id="dMsTMZP7S"></path><path d="M185.22 562.57L292.25 688.73L201.76 827.25L38.8 786.68L28.58 623.1L185.22 562.57Z" id="a2WP75jhH"></path><path d="M-274.39 58.26L14.42 129.23L28.58 426.31L-251.5 538.93L-438.74 311.46L-274.39 58.26Z" id="a5ffFNFeC8"></path><path d="M27.35 34.2L73.52 46.67L74.7 94.48L29.27 111.56L0 74.31L27.35 34.2Z" id="a1qkFZunAa"></path></defs><g><g><g><use xlink:href="#aLyieWvZ0" opacity="1" fill="#222222" fill-opacity="1"></use></g><g><g><use xlink:href="#ho8bwbe6d" opacity="1" fill-opacity="0" stroke="#3399ff" stroke-width="4" stroke-opacity="1"></use></g></g><g><g><use xlink:href="#b4o2mLpdO" opacity="0.86" fill-opacity="0" stroke="#3399ff" stroke-width="4" stroke-opacity="1"></use></g></g><g><g><use xlink:href="#g56hrmfaS" opacity="0.15" fill-opacity="0" stroke="#3399ff" stroke-width="4" stroke-opacity="1"></use></g></g><g><g><use xlink:href="#d7fd6lC20m" opacity="1" fill-opacity="0" stroke="#3399ff" stroke-width="4" stroke-opacity="1"></use></g></g><g><g><use xlink:href="#a5QoJv1fiT" opacity="1" fill-opacity="0" stroke="#3399ff" stroke-width="4" stroke-opacity="1"></use></g></g><g><g><use xlink:href="#b1PwBKb8O8" opacity="0.56" fill-opacity="0" stroke="#3399ff" stroke-width="4" stroke-opacity="1"></use></g></g><g><g><use xlink:href="#a2mcsQFwEF" opacity="0.67" fill-opacity="0" stroke="#3399ff" stroke-width="4" stroke-opacity="1"></use></g></g><g><g><use xlink:href="#b39J1jJxJU" opacity="0.48" fill-opacity="0" stroke="#3399ff" stroke-width="4" stroke-opacity="1"></use></g></g><g><g><use xlink:href="#a1Q0ZCjStZ" opacity="1" fill-opacity="0" stroke="#3399ff" stroke-width="4" stroke-opacity="1"></use></g></g><g><g><use xlink:href="#e5oMZvZfSf" opacity="0.2" fill-opacity="0" stroke="#3399ff" stroke-width="4" stroke-opacity="1"></use></g></g><g><g><use xlink:href="#a1od4dQr8a" opacity="1" fill-opacity="0" stroke="#3399ff" stroke-width="4" stroke-opacity="1"></use></g></g><g><g><use xlink:href="#awzMZm0di" opacity="1" fill-opacity="0" stroke="#3399ff" stroke-width="4" stroke-opacity="1"></use></g></g><g><g><use xlink:href="#d2HZ35TEiO" opacity="0.25" fill-opacity="0" stroke="#3399ff" stroke-width="4" stroke-opacity="1"></use></g></g><g><g><use xlink:href="#dMsTMZP7S" opacity="0.25" fill-opacity="0" stroke="#3399ff" stroke-width="4" stroke-opacity="1"></use></g></g><g><g><use xlink:href="#a2WP75jhH" opacity="0.86" fill-opacity="0" stroke="#3399ff" stroke-width="4" stroke-opacity="1"></use></g></g><g><g><use xlink:href="#a5ffFNFeC8" opacity="0.08" fill-opacity="0" stroke="#3399ff" stroke-width="4" stroke-opacity="1"></use></g></g><g><g><use xlink:href="#a1qkFZunAa" opacity="0.55" fill-opacity="0" stroke="#3399ff" stroke-width="4" stroke-opacity="1"></use></g></g></g></g></svg>